<mxfile host="app.diagrams.net" modified="2024-05-08T14:55:52.015Z" agent="Mozilla/5.0 (Windows NT 10.0; Win64; x64) AppleWebKit/537.36 (KHTML, like Gecko) Chrome/122.0.0.0 Safari/537.36 OPR/108.0.0.0" version="24.3.1" etag="TV3YfxgLVDY6sk8s-nj5" type="github">
  <diagram name="PÃ¡gina-1" id="jFUMzmTcp-UO0v1cyduV">
    <mxGraphModel>
      <root>
        <mxCell id="0" />
        <mxCell id="1" parent="0" />
      </root>
    </mxGraphModel>
  </diagram>
</mxfile>
